<?xml version="1.0" encoding="utf-8"?>
<!-- Generator: Adobe Illustrator 22.0.1, SVG Export Plug-In . SVG Version: 6.00 Build 0)  -->
<svg version="1.1" id="Layer_1" xmlns="http://www.w3.org/2000/svg" xmlns:xlink="http://www.w3.org/1999/xlink" x="0px" y="0px"
	 viewBox="0 0 256 256" style="enable-background:new 0 0 256 256;" xml:space="preserve">
<style type="text/css">
	.st0{fill:#3A312A;}
	.st1{fill:#D6DF58;}
	.st2{fill:#87796F;}
	.st3{fill:#B9C239;}
	.st4{fill:#EF6D7A;}
	.st5{fill:#FCE8CB;}
	.st6{fill:#D5DE58;}
	.st7{fill:#D34E5C;}
	.st8{fill:#695B51;}
	.st9{fill:#8AC6DD;}
	.st10{fill:#D7E057;}
	.st11{fill:#B8C136;}
	.st12{fill:#F16C7A;}
	.st13{fill:#8AC2D9;}
	.st14{fill:#F7E3C7;}
	.st15{fill:#8AC3DA;}
	.st16{fill:#6DA3BC;}
	.st17{fill:#6A5C52;}
	.st18{fill:#D5DC57;}
	.st19{fill:#F6E2C6;}
	.st20{fill:#DBC7AA;}
	.st21{fill:#CE4E61;}
	.st22{fill:#FAE6CA;}
	.st23{fill:#8AC5DC;}
	.st24{fill:#DDC9AC;}
	.st25{fill:#DECAAD;}
	.st26{fill:#6CA6BE;}
	.st27{fill:#F8E4C8;}
	.st28{fill:#89C4DB;}
	.st29{fill:#ED6E7A;}
	.st30{fill:#D24E5C;}
	.st31{fill:#6DA4BD;}
	.st32{fill:#EB6E7A;}
	.st33{fill:#68A7BB;}
	.st34{fill:#B9BC37;}
	.st35{fill:#CC4E61;}
	.st36{fill:#6CA8BF;}
	.st37{fill-rule:evenodd;clip-rule:evenodd;fill:#D5DE58;}
	.st38{fill:#EA6D7A;}
	.st39{fill:#F4E0C4;}
	.st40{fill-rule:evenodd;clip-rule:evenodd;fill:#D6DF58;}
	.st41{fill-rule:evenodd;clip-rule:evenodd;fill:#F16C7A;}
	.st42{fill:#F3DEC3;}
	.st43{fill-rule:evenodd;clip-rule:evenodd;fill:#FAE6CA;}
	.st44{fill:#F59689;}
	.st45{fill-rule:evenodd;clip-rule:evenodd;fill:#F8E4C8;}
	.st46{fill-rule:evenodd;clip-rule:evenodd;fill:#FCE8CB;}
	.st47{fill:#F5978A;}
	.st48{fill:#D4DB56;}
	.st49{fill-rule:evenodd;clip-rule:evenodd;fill:#D4DA55;}
	.st50{fill-rule:evenodd;clip-rule:evenodd;fill:#EB6E7A;}
	.st51{fill:#68A6B9;}
	.st52{fill-rule:evenodd;clip-rule:evenodd;fill:#D5DC57;}
	.st53{fill:#8AC1D8;}
	.st54{fill:#F5E1C5;}
	.st55{fill:#D4D752;}
	.st56{fill:#D3D751;}
	.st57{fill:#D4D853;}
	.st58{fill:#E96C7A;}
	.st59{fill:#D4DA55;}
	.st60{fill:#8BC0D7;}
	.st61{fill:#87796F;stroke:#3A312A;stroke-width:3;stroke-linecap:round;stroke-linejoin:round;stroke-miterlimit:10;}
</style>
<g>
	<g>
		<g>
			
				<ellipse transform="matrix(0.1602 -0.9871 0.9871 0.1602 -102.8959 314.5242)" class="st2" cx="133.392" cy="217.732" rx="21.759" ry="21.759"/>
		</g>
	</g>
	<g>
		<g>
			<path class="st0" d="M133.392,194.474c-12.825,0-23.259,10.434-23.259,23.258c0,12.825,10.434,23.259,23.259,23.259
				s23.259-10.434,23.259-23.259C156.65,204.907,146.216,194.474,133.392,194.474z M133.392,237.99
				c-11.171,0-20.259-9.088-20.259-20.259c0-11.17,9.088-20.258,20.259-20.258s20.259,9.088,20.259,20.258
				C153.65,228.902,144.563,237.99,133.392,237.99z"/>
		</g>
	</g>
	<g>
		<g>
			
				<ellipse transform="matrix(0.9951 -0.0985 0.0985 0.9951 -20.8058 14.2038)" class="st14" cx="133.392" cy="217.732" rx="8.901" ry="8.901"/>
		</g>
	</g>
	<g>
		<g>
			<path class="st0" d="M133.392,207.331c-5.735,0-10.401,4.666-10.401,10.4c0,5.736,4.666,10.402,10.401,10.402
				c5.735,0,10.401-4.666,10.401-10.402C143.793,211.997,139.127,207.331,133.392,207.331z M133.392,225.134
				c-4.081,0-7.401-3.32-7.401-7.402c0-4.081,3.32-7.4,7.401-7.4s7.401,3.319,7.401,7.4
				C140.793,221.813,137.473,225.134,133.392,225.134z"/>
		</g>
	</g>
	<g>
		<g>
			
				<ellipse transform="matrix(0.0985 -0.9951 0.9951 0.0985 -46.649 383.9676)" class="st2" cx="188.608" cy="217.732" rx="21.759" ry="21.759"/>
		</g>
	</g>
	<g>
		<g>
			<path class="st0" d="M188.608,194.474c-12.825,0-23.259,10.434-23.259,23.258c0,12.825,10.434,23.259,23.259,23.259
				s23.259-10.434,23.259-23.259C211.867,204.907,201.433,194.474,188.608,194.474z M188.608,237.99
				c-11.171,0-20.259-9.088-20.259-20.259c0-11.17,9.088-20.258,20.259-20.258s20.259,9.088,20.259,20.258
				C208.867,228.902,199.779,237.99,188.608,237.99z"/>
		</g>
	</g>
	<g>
		<g>
			<circle class="st14" cx="188.608" cy="217.732" r="8.901"/>
		</g>
	</g>
	<g>
		<g>
			<path class="st0" d="M188.608,207.331c-5.735,0-10.401,4.666-10.401,10.4c0,5.736,4.666,10.402,10.401,10.402
				s10.401-4.666,10.401-10.402C199.01,211.997,194.344,207.331,188.608,207.331z M188.608,225.134c-4.081,0-7.401-3.32-7.401-7.402
				c0-4.081,3.32-7.4,7.401-7.4s7.401,3.319,7.401,7.4C196.01,221.813,192.69,225.134,188.608,225.134z"/>
		</g>
	</g>
	<g>
		<g>
			<path class="st15" d="M235.986,66.973H77.896l25.01,98.95h105.33c2.922,0,5.511-1.882,6.414-4.661L242.4,75.799
				C243.814,71.442,240.567,66.973,235.986,66.973z"/>
		</g>
	</g>
	<g>
		<g>
			<path class="st0" d="M242.655,68.871c-1.569-2.159-4-3.397-6.669-3.397H77.896c-0.462,0-0.899,0.214-1.184,0.578
				c-0.284,0.365-0.384,0.841-0.271,1.289l25.01,98.95c0.168,0.666,0.767,1.133,1.454,1.133h58.657c0.829,0,1.5-0.672,1.5-1.5
				s-0.671-1.5-1.5-1.5h-57.489l-24.252-95.95h156.164c1.698,0,3.244,0.788,4.242,2.161c0.998,1.373,1.27,3.086,0.745,4.701
				L213.222,160.8c-0.704,2.168-2.708,3.624-4.987,3.624h-31.768c-0.829,0-1.5,0.672-1.5,1.5s0.671,1.5,1.5,1.5h31.768
				c3.583,0,6.734-2.29,7.84-5.698l27.751-85.464C244.651,73.724,244.224,71.03,242.655,68.871z"/>
		</g>
	</g>
	<g>
		<g>
			<path class="st2" d="M219.014,181.471H106.831L66.521,21.984c-0.813-3.219-3.71-5.475-7.03-5.475H20.517
				c-4.005,0-7.251,3.247-7.251,7.251c0,4.004,3.246,7.251,7.251,7.251h33.328l5.531,21.885l3.836,15.176l30.943,122.427
				c0.813,3.219,3.709,5.475,7.03,5.475h117.83c4.005,0,7.251-3.247,7.251-7.251S223.019,181.471,219.014,181.471z"/>
		</g>
	</g>
	<g>
		<g>
			<path class="st0" d="M219.015,179.972H107.999L67.975,21.617c-0.983-3.891-4.472-6.607-8.484-6.607H20.517
				c-4.825,0-8.751,3.926-8.751,8.751s3.926,8.751,8.751,8.751h32.16l5.245,20.752c0.204,0.805,1.017,1.291,1.822,1.087
				c0.803-0.203,1.289-1.019,1.086-1.821l-5.531-21.885c-0.168-0.666-0.767-1.133-1.454-1.133H20.517
				c-3.171,0-5.751-2.58-5.751-5.751s2.58-5.751,5.751-5.751h38.975c2.637,0,4.93,1.785,5.576,4.342l40.31,159.487
				c0.168,0.666,0.767,1.133,1.454,1.133h112.183c3.171,0,5.751,2.58,5.751,5.751s-2.58,5.751-5.751,5.751h-117.83
				c-2.637,0-4.929-1.785-5.575-4.342L64.666,67.704c-0.203-0.804-1.017-1.291-1.822-1.087c-0.803,0.203-1.289,1.019-1.086,1.821
				l30.943,122.428c0.982,3.891,4.471,6.607,8.483,6.607h117.83c4.825,0,8.751-3.926,8.751-8.751S223.84,179.972,219.015,179.972z"
				/>
		</g>
	</g>
	<g>
		<g>
			<path class="st16" d="M240.226,70.633c-1-1.37-2.54-2.16-4.24-2.16h-15c1.7,0,3.24,0.79,4.24,2.16c1,1.37,1.27,3.09,0.75,4.7
				l-27.75,85.47c-0.71,2.16-2.71,3.62-4.99,3.62h15c2.28,0,4.28-1.46,4.99-3.62l27.75-85.47
				C241.496,73.723,241.226,72.003,240.226,70.633z"/>
		</g>
	</g>
	<g>
		<g>
			<path class="st17" d="M219.016,182.973h-15c3.17,0,5.75,2.58,5.75,5.75s-2.58,5.75-5.75,5.75h15c3.17,0,5.75-2.58,5.75-5.75
				S222.186,182.973,219.016,182.973z"/>
		</g>
	</g>
	<g>
		<g>
			<path class="st18" d="M50.246,93.193c-0.974,11.564-13.025,13.39-13.025,13.39c10.347,0.487,12.925,14.059,12.925,14.059
				c0.221-9.677,13.321-14.202,13.321-14.202C53.654,105.852,50.246,93.193,50.246,93.193z"/>
		</g>
	</g>
	<g>
		<g>
			<path class="st0" d="M63.557,104.942c-8.604-0.515-11.831-12.024-11.863-12.141c-0.191-0.703-0.861-1.165-1.584-1.102
				c-0.725,0.066-1.298,0.642-1.359,1.367c-0.86,10.215-11.313,11.964-11.754,12.032c-0.763,0.116-1.313,0.791-1.273,1.561
				c0.04,0.771,0.657,1.385,1.428,1.421c9.028,0.425,11.499,12.718,11.522,12.843c0.137,0.711,0.759,1.217,1.472,1.217
				c0.042,0,0.084-0.002,0.126-0.005c0.764-0.064,1.357-0.693,1.375-1.46c0.194-8.509,12.191-12.777,12.313-12.819
				c0.675-0.234,1.092-0.914,0.994-1.622C64.854,105.525,64.271,104.984,63.557,104.942z M49.991,115.288
				c-1.357-3.131-3.708-6.907-7.587-8.877c2.931-1.404,6.409-3.912,8.202-8.272c1.551,3.071,4.2,6.88,8.334,8.723
				C55.933,108.501,52.018,111.267,49.991,115.288z"/>
		</g>
	</g>
	<g>
		<g>
			<path class="st18" d="M28.547,110.174c-0.689,8.179-9.213,9.47-9.213,9.47c7.318,0.344,9.142,9.944,9.142,9.944
				c0.156-6.844,9.422-10.045,9.422-10.045C30.958,119.128,28.547,110.174,28.547,110.174z"/>
		</g>
	</g>
	<g>
		<g>
			<path class="st0" d="M37.988,118.046c-5.766-0.345-7.972-8.186-7.994-8.265c-0.19-0.701-0.853-1.17-1.582-1.102
				c-0.726,0.065-1.299,0.643-1.36,1.368c-0.579,6.87-7.647,8.066-7.942,8.113c-0.763,0.116-1.314,0.791-1.274,1.561
				c0.04,0.771,0.657,1.385,1.428,1.421c6.035,0.284,7.723,8.645,7.739,8.727c0.135,0.712,0.759,1.22,1.472,1.22
				c0.042,0,0.083-0.002,0.125-0.005c0.765-0.063,1.358-0.693,1.376-1.461c0.13-5.709,8.332-8.634,8.413-8.662
				c0.677-0.234,1.094-0.913,0.996-1.622C39.288,118.63,38.703,118.088,37.988,118.046z M28.404,124.841
				c-0.924-1.886-2.34-3.947-4.447-5.28c1.856-1.041,3.697-2.63,4.871-4.916c1.057,1.874,2.654,3.955,4.942,5.224
				C31.919,120.969,29.78,122.608,28.404,124.841z"/>
		</g>
	</g>
	<g>
		<g>
			<path class="st18" d="M28.547,83.516c-0.689,8.179-9.213,9.471-9.213,9.471c7.318,0.344,9.142,9.944,9.142,9.944
				c0.156-6.845,9.422-10.045,9.422-10.045C30.958,92.47,28.547,83.516,28.547,83.516z"/>
		</g>
	</g>
	<g>
		<g>
			<path class="st0" d="M37.989,91.389c-5.767-0.346-7.973-8.187-7.994-8.266c-0.19-0.702-0.853-1.162-1.582-1.102
				c-0.726,0.065-1.299,0.643-1.36,1.368c-0.579,6.871-7.646,8.066-7.942,8.113c-0.763,0.116-1.313,0.791-1.274,1.561
				c0.04,0.771,0.657,1.385,1.427,1.421c6.036,0.284,7.724,8.645,7.739,8.727c0.135,0.712,0.759,1.22,1.472,1.22
				c0.042,0,0.083-0.002,0.125-0.005c0.765-0.063,1.358-0.693,1.376-1.461c0.13-5.708,8.332-8.633,8.413-8.661
				c0.676-0.233,1.094-0.913,0.996-1.622C39.288,91.973,38.703,91.432,37.989,91.389z M28.404,98.183
				c-0.924-1.885-2.34-3.947-4.447-5.279c1.856-1.041,3.697-2.63,4.871-4.917c1.057,1.874,2.654,3.955,4.942,5.225
				C31.919,94.312,29.78,95.951,28.404,98.183z"/>
		</g>
	</g>
	<g>
		<g>
			
				<ellipse transform="matrix(0.0553 -0.9985 0.9985 0.0553 -133.8719 247.9586)" class="st4" cx="64.1" cy="194.725" rx="44.766" ry="44.765"/>
		</g>
	</g>
	<g>
		<g>
			<path class="st0" d="M64.1,148.46c-25.511,0-46.266,20.755-46.266,46.266S38.589,240.99,64.1,240.99s46.265-20.754,46.265-46.265
				S89.611,148.46,64.1,148.46z M64.1,237.99c-23.857,0-43.266-19.408-43.266-43.265S40.243,151.46,64.1,151.46
				c23.856,0,43.265,19.409,43.265,43.266S87.956,237.99,64.1,237.99z"/>
		</g>
	</g>
	<g>
		<g>
			<path class="st2" d="M71.875,195.439l14.043-14.042c2.136-2.135,2.136-5.598,0-7.733c-2.134-2.136-5.599-2.136-7.733,0
				l-14.043,14.043L50.1,173.664c-2.134-2.136-5.599-2.136-7.733,0c-2.136,2.135-2.136,5.598,0,7.733l14.043,14.042l-14.043,14.043
				c-2.136,2.135-2.136,5.598,0,7.732c1.067,1.068,2.467,1.602,3.866,1.602c1.399,0,2.799-0.534,3.866-1.602l14.043-14.042
				l14.043,14.042c1.067,1.068,2.467,1.602,3.866,1.602c1.399,0,2.799-0.534,3.866-1.602c2.136-2.135,2.136-5.598,0-7.732
				L71.875,195.439z"/>
		</g>
	</g>
	<g>
		<g>
			<path class="st0" d="M73.996,195.439l12.982-12.982c1.316-1.315,2.042-3.065,2.042-4.927s-0.725-3.611-2.041-4.927
				c-1.315-1.316-3.065-2.041-4.927-2.041c-1.862,0-3.612,0.725-4.927,2.041l-12.982,12.982l-12.982-12.982
				c-1.315-1.316-3.065-2.041-4.927-2.041s-3.612,0.725-4.927,2.041c-1.317,1.315-2.042,3.065-2.042,4.927s0.725,3.611,2.042,4.927
				l12.982,12.982l-12.982,12.982c-1.317,1.315-2.042,3.065-2.042,4.927s0.725,3.611,2.041,4.927
				c1.316,1.316,3.066,2.042,4.928,2.042c1.862,0,3.612-0.726,4.927-2.042l12.982-12.982l12.981,12.981
				c1.316,1.317,3.066,2.043,4.928,2.043c1.862,0,3.612-0.726,4.927-2.042c1.316-1.315,2.042-3.065,2.042-4.927
				s-0.725-3.611-2.042-4.927L73.996,195.439z M84.857,216.154c-1.498,1.5-4.112,1.5-5.611,0l-14.043-14.043
				c-0.281-0.281-0.663-0.439-1.06-0.439c-0.398,0-0.779,0.158-1.061,0.439l-14.044,14.044c-1.497,1.498-4.112,1.499-5.611-0.001
				c-0.75-0.749-1.163-1.746-1.163-2.806s0.413-2.057,1.163-2.806L57.47,196.5c0.586-0.586,0.586-1.535,0-2.121l-14.043-14.043
				c-0.75-0.749-1.163-1.746-1.163-2.806s0.413-2.057,1.163-2.806c1.498-1.499,4.113-1.501,5.611,0l14.043,14.043
				c0.563,0.563,1.559,0.563,2.121,0l14.043-14.043c1.498-1.499,4.112-1.501,5.611,0c0.749,0.749,1.163,1.746,1.163,2.806
				s-0.413,2.057-1.163,2.806l-14.043,14.043c-0.586,0.586-0.586,1.535,0,2.121l14.043,14.043c0.749,0.749,1.163,1.746,1.163,2.806
				S85.607,215.405,84.857,216.154z"/>
		</g>
	</g>
</g>
</svg>
